<mxfile host="app.diagrams.net" modified="2023-11-02T14:12:40.425Z" agent="Mozilla/5.0 (Macintosh; Intel Mac OS X 10_15_7) AppleWebKit/537.36 (KHTML, like Gecko) Chrome/118.0.0.0 Safari/537.36" etag="QLIoVsKBk5E9jPHRsVSm" version="22.0.8" type="github">
  <diagram name="Page-1" id="BS4JFFo4nNHYShiZUlus">
    <mxGraphModel dx="821" dy="523" grid="1" gridSize="10" guides="1" tooltips="1" connect="1" arrows="1" fold="1" page="1" pageScale="1" pageWidth="850" pageHeight="1100" math="0" shadow="0">
      <root>
        <mxCell id="0" />
        <mxCell id="1" parent="0" />
        <mxCell id="lkiDsQOt1oUe-vWi0D46-3" value="" style="verticalLabelPosition=bottom;verticalAlign=top;html=1;shape=mxgraph.basic.corner_round_rect;dx=6;whiteSpace=wrap;strokeColor=none;fillColor=#FF6B6B;" vertex="1" parent="1">
          <mxGeometry x="310" y="220" width="100" height="60" as="geometry" />
        </mxCell>
        <mxCell id="lkiDsQOt1oUe-vWi0D46-4" value="" style="verticalLabelPosition=bottom;verticalAlign=top;html=1;shape=mxgraph.basic.corner_round_rect;dx=6;whiteSpace=wrap;rotation=90;strokeColor=none;fillColor=#FFD93D;" vertex="1" parent="1">
          <mxGeometry x="400" y="240" width="100" height="60" as="geometry" />
        </mxCell>
        <mxCell id="lkiDsQOt1oUe-vWi0D46-5" value="" style="verticalLabelPosition=bottom;verticalAlign=top;html=1;shape=mxgraph.basic.corner_round_rect;dx=6;whiteSpace=wrap;rotation=-180;strokeColor=none;fillColor=#6BCB77;" vertex="1" parent="1">
          <mxGeometry x="380" y="330" width="100" height="60" as="geometry" />
        </mxCell>
        <mxCell id="lkiDsQOt1oUe-vWi0D46-6" value="" style="verticalLabelPosition=bottom;verticalAlign=top;html=1;shape=mxgraph.basic.corner_round_rect;dx=6;whiteSpace=wrap;rotation=-90;strokeColor=none;fillColor=#4D96FF;" vertex="1" parent="1">
          <mxGeometry x="290" y="310" width="100" height="60" as="geometry" />
        </mxCell>
        <mxCell id="lkiDsQOt1oUe-vWi0D46-7" value="&lt;font style=&quot;font-size: 150px;&quot;&gt;sumsue&lt;/font&gt;" style="text;html=1;align=center;verticalAlign=middle;resizable=0;points=[];autosize=1;strokeColor=none;fillColor=none;fontSize=150;fontFamily=Dosis;fontStyle=1;fontSource=https%3A%2F%2Ffonts.googleapis.com%2Fcss%3Ffamily%3DDosis;" vertex="1" parent="1">
          <mxGeometry x="490" y="190" width="470" height="190" as="geometry" />
        </mxCell>
      </root>
    </mxGraphModel>
  </diagram>
</mxfile>
